<?xml version="1.0" encoding="UTF-8" standalone="no"?>
<svg
   xmlns:dc="http://purl.org/dc/elements/1.1/"
   xmlns:cc="http://creativecommons.org/ns#"
   xmlns:rdf="http://www.w3.org/1999/02/22-rdf-syntax-ns#"
   xmlns:svg="http://www.w3.org/2000/svg"
   xmlns="http://www.w3.org/2000/svg"
   xmlns:sodipodi="http://sodipodi.sourceforge.net/DTD/sodipodi-0.dtd"
   xmlns:inkscape="http://www.inkscape.org/namespaces/inkscape"
   version="1.1"
   id="svg2"
   xml:space="preserve"
   width="1122.52"
   height="793.70135"
   viewBox="0 0 1122.52 793.70135"
   sodipodi:docname="Gigawhat Vector.ai"><metadata
     id="metadata8"><rdf:RDF><cc:Work
         rdf:about=""><dc:format>image/svg+xml</dc:format><dc:type
           rdf:resource="http://purl.org/dc/dcmitype/StillImage" /></cc:Work></rdf:RDF></metadata><defs
     id="defs6"><clipPath
       clipPathUnits="userSpaceOnUse"
       id="clipPath20"><path
         d="M 0,595.276 H 841.89 V 0 H 0 Z"
         id="path18" /></clipPath></defs><sodipodi:namedview
     pagecolor="#ffffff"
     bordercolor="#666666"
     borderopacity="1"
     objecttolerance="10"
     gridtolerance="10"
     guidetolerance="10"
     inkscape:pageopacity="0"
     inkscape:pageshadow="2"
     inkscape:window-width="640"
     inkscape:window-height="480"
     id="namedview4" /><g
     id="g10"
     inkscape:groupmode="layer"
     inkscape:label="Gigawhat Vector"
     transform="matrix(1.3333333,0,0,-1.3333333,0,793.70133)"><path
       d="M 0,0 H 841.89 V 595.275 H 0 Z"
       style="fill:#1e1f20;fill-opacity:1;fill-rule:nonzero;stroke:none"
       id="path12" /><g
       id="g14"><g
         id="g16"
         clip-path="url(#clipPath20)"><g
           id="g22"
           transform="translate(466.8154,285.6164)"><path
             d="m 0,0 c -7.156,0 -12.958,6.116 -12.958,13.661 0,7.546 5.802,13.662 12.958,13.662 7.155,0 11.408,-6.258 11.408,-13.802 C 11.408,5.976 7.155,0 0,0 m 11.408,35.614 c -3.637,3.23 -8.308,5.163 -13.883,5.163 -14.204,0 -25.717,-12.14 -25.717,-27.116 0,-14.975 11.513,-27.115 25.717,-27.115 5.575,0 10.246,1.847 13.883,4.972 v -4.475 H 27.182 V 39.999 H 11.408 Z"
             style="fill:#ffffff;fill-opacity:1;fill-rule:nonzero;stroke:none"
             id="path24" /></g><g
           id="g26"
           transform="translate(567.248,293.8)"><path
             d="m 0,0 -11.846,31.815 h -0.282 -13.66 -0.281 L -37.697,0.584 -48.745,31.815 h -15.774 l 18.732,-52.956 h 15.774 l 11.055,32.733 11.056,-32.733 h 0.423 15.35 0.425 L 27.027,31.815 H 11.253 Z"
             style="fill:#ffffff;fill-opacity:1;fill-rule:nonzero;stroke:none"
             id="path28" /></g><g
           id="g30"
           transform="translate(633.4756,326.1784)"><path
             d="m 0,0 c -7.891,0 -13.508,-6.344 -15.82,-9.511 v 27.726 h -15.775 v -71.734 h 15.775 v 31.423 c 3.111,3.828 8.246,9.045 12.253,9.045 5.633,0 8.027,-3.944 8.027,-9.484 v -30.984 h 15.774 v 21.22 9.764 3.286 C 20.234,-7.418 10.517,0 0,0"
             style="fill:#ffffff;fill-opacity:1;fill-rule:nonzero;stroke:none"
             id="path32" /></g><g
           id="g34"
           transform="translate(690.6289,285.6164)"><path
             d="m 0,0 c -7.156,0 -12.957,6.116 -12.957,13.661 0,7.546 5.801,13.662 12.957,13.662 7.156,0 11.408,-6.258 11.408,-13.802 C 11.408,5.976 7.156,0 0,0 m 11.408,35.614 c -3.637,3.23 -8.307,5.163 -13.882,5.163 -14.204,0 -25.718,-12.14 -25.718,-27.116 0,-14.975 11.514,-27.115 25.718,-27.115 5.575,0 10.245,1.847 13.882,4.972 v -4.475 H 27.183 V 39.999 H 11.408 Z"
             style="fill:#ffffff;fill-opacity:1;fill-rule:nonzero;stroke:none"
             id="path36" /></g><g
           id="g38"
           transform="translate(402.5918,285.6164)"><path
             d="m 0,0 c -7.156,0 -12.957,6.116 -12.957,13.661 0,7.546 5.801,13.662 12.957,13.662 7.156,0 11.408,-6.258 11.408,-13.802 C 11.408,5.976 7.156,0 0,0 m 11.408,35.614 c -3.637,3.23 -8.307,5.163 -13.882,5.163 -14.204,0 -25.718,-12.14 -25.718,-27.116 0,-14.975 11.514,-27.115 25.718,-27.115 5.575,0 10.245,1.847 13.882,4.972 v -4.475 c 0,-8.732 -16.666,-8.545 -25.774,-5.353 v -12.957 c 13.052,-4.882 41.549,-2.722 41.549,18.31 v 7.136 45.82 H 11.408 Z"
             style="fill:#ffffff;fill-opacity:1;fill-rule:nonzero;stroke:none"
             id="path40" /></g><path
           d="m 349.777,272.659 h 15.774 v 52.956 h -15.774 z"
           style="fill:#ffffff;fill-opacity:1;fill-rule:nonzero;stroke:none"
           id="path42" /><path
           d="m 349.777,330.685 h 15.774 v 14.084 h -15.774 z"
           style="fill:#ffffff;fill-opacity:1;fill-rule:nonzero;stroke:none"
           id="path44" /><g
           id="g46"
           transform="translate(749.3594,290.3811)"><path
             d="M 0,0 V 21.995 H 10.686 V 35.234 H 0 V 47.628 H -15.773 V 35.234 h -7.625 V 21.995 h 7.625 V -5.328 c 0,-5.962 5.825,-12.891 14.064,-12.891 8.239,0 13.169,1.952 13.169,1.952 V -3.099 C 5.896,-5.07 0,-3.943 0,0"
             style="fill:#ffffff;fill-opacity:1;fill-rule:nonzero;stroke:none"
             id="path48" /></g><g
           id="g50"
           transform="translate(339.2139,311.1555)"><path
             d="m 0,0 h -5.634 -3.734 -20.349 v -13.521 h 16.188 c -2.741,-5.676 -7.862,-10.704 -16.188,-10.704 -11.746,0 -21.267,9.522 -21.267,21.267 0,11.746 9.521,21.267 21.267,21.267 5.065,0 9.579,-1.777 13.083,-4.733 L -6.23,24.725 c -5.795,5.367 -13.892,8.654 -25.178,8.654 -20.068,0 -36.336,-16.269 -36.336,-36.337 0,-20.068 16.268,-36.337 36.336,-36.337 20.069,0 32.253,12.958 32.253,36.337 0,1.014 0.005,1.996 -0.007,2.958 z"
             style="fill:#ffffff;fill-opacity:1;fill-rule:nonzero;stroke:none"
             id="path52" /></g><g
           id="g54"
           transform="translate(466.8154,285.6164)"><path
             d="m 0,0 c -7.156,0 -12.958,6.116 -12.958,13.661 0,7.546 5.802,13.662 12.958,13.662 7.155,0 11.408,-6.258 11.408,-13.802 C 11.408,5.976 7.155,0 0,0 m 11.408,35.614 c -3.637,3.23 -8.308,5.163 -13.883,5.163 -14.204,0 -25.717,-12.14 -25.717,-27.116 0,-14.975 11.513,-27.115 25.717,-27.115 5.575,0 10.246,1.847 13.883,4.972 v -4.475 H 27.182 V 39.999 H 11.408 Z"
             style="fill:#ffffff;fill-opacity:1;fill-rule:nonzero;stroke:none"
             id="path56" /></g><g
           id="g58"
           transform="translate(567.248,293.8)"><path
             d="m 0,0 -11.846,31.815 h -0.282 -13.66 -0.281 L -37.697,0.584 -48.745,31.815 h -15.774 l 18.732,-52.956 h 15.774 l 11.055,32.733 11.056,-32.733 h 0.423 15.35 0.425 L 27.027,31.815 H 11.253 Z"
             style="fill:#ffffff;fill-opacity:1;fill-rule:nonzero;stroke:none"
             id="path60" /></g><g
           id="g62"
           transform="translate(633.4756,326.1784)"><path
             d="m 0,0 c -7.891,0 -13.508,-6.344 -15.82,-9.511 v 27.726 h -15.775 v -71.734 h 15.775 v 31.423 c 3.111,3.828 8.246,9.045 12.253,9.045 5.633,0 8.027,-3.944 8.027,-9.484 v -30.984 h 15.774 v 21.22 9.764 3.286 C 20.234,-7.418 10.517,0 0,0"
             style="fill:#ffffff;fill-opacity:1;fill-rule:nonzero;stroke:none"
             id="path64" /></g><g
           id="g66"
           transform="translate(690.6289,285.6164)"><path
             d="m 0,0 c -7.156,0 -12.957,6.116 -12.957,13.661 0,7.546 5.801,13.662 12.957,13.662 7.156,0 11.408,-6.258 11.408,-13.802 C 11.408,5.976 7.156,0 0,0 m 11.408,35.614 c -3.637,3.23 -8.307,5.163 -13.882,5.163 -14.204,0 -25.718,-12.14 -25.718,-27.116 0,-14.975 11.514,-27.115 25.718,-27.115 5.575,0 10.245,1.847 13.882,4.972 v -4.475 H 27.183 V 39.999 H 11.408 Z"
             style="fill:#ffffff;fill-opacity:1;fill-rule:nonzero;stroke:none"
             id="path68" /></g><g
           id="g70"
           transform="translate(402.5918,285.6164)"><path
             d="m 0,0 c -7.156,0 -12.957,6.116 -12.957,13.661 0,7.546 5.801,13.662 12.957,13.662 7.156,0 11.408,-6.258 11.408,-13.802 C 11.408,5.976 7.156,0 0,0 m 11.408,35.614 c -3.637,3.23 -8.307,5.163 -13.882,5.163 -14.204,0 -25.718,-12.14 -25.718,-27.116 0,-14.975 11.514,-27.115 25.718,-27.115 5.575,0 10.245,1.847 13.882,4.972 v -4.475 c 0,-8.732 -16.666,-8.545 -25.774,-5.353 v -12.957 c 13.052,-4.882 41.549,-2.722 41.549,18.31 v 7.136 45.82 H 11.408 Z"
             style="fill:#ffffff;fill-opacity:1;fill-rule:nonzero;stroke:none"
             id="path72" /></g><path
           d="m 349.777,272.659 h 15.774 v 52.956 h -15.774 z"
           style="fill:#ffffff;fill-opacity:1;fill-rule:nonzero;stroke:none"
           id="path74" /><path
           d="m 349.777,330.685 h 15.774 v 14.084 h -15.774 z"
           style="fill:#ffffff;fill-opacity:1;fill-rule:nonzero;stroke:none"
           id="path76" /><g
           id="g78"
           transform="translate(749.3594,290.3811)"><path
             d="M 0,0 V 21.995 H 10.686 V 35.234 H 0 V 47.628 H -15.773 V 35.234 h -7.625 V 21.995 h 7.625 V -5.328 c 0,-5.962 5.825,-12.891 14.064,-12.891 8.239,0 13.169,1.952 13.169,1.952 V -3.099 C 5.896,-5.07 0,-3.943 0,0"
             style="fill:#ffffff;fill-opacity:1;fill-rule:nonzero;stroke:none"
             id="path80" /></g><g
           id="g82"
           transform="translate(339.2139,311.1555)"><path
             d="m 0,0 h -5.634 -3.734 -20.349 v -13.521 h 16.188 c -2.741,-5.676 -7.862,-10.704 -16.188,-10.704 -11.746,0 -21.267,9.522 -21.267,21.267 0,11.746 9.521,21.267 21.267,21.267 5.065,0 9.579,-1.777 13.083,-4.733 L -6.23,24.725 c -5.795,5.367 -13.892,8.654 -25.178,8.654 -20.068,0 -36.336,-16.269 -36.336,-36.337 0,-20.068 16.268,-36.337 36.336,-36.337 20.069,0 32.253,12.958 32.253,36.337 0,1.014 0.005,1.996 -0.007,2.958 z"
             style="fill:#ffffff;fill-opacity:1;fill-rule:nonzero;stroke:none"
             id="path84" /></g><g
           id="g86"
           transform="translate(175.4209,309.382)"><path
             d="m 0,0 c -3.305,0.059 -5.937,2.787 -5.877,6.092 0.058,3.305 2.786,5.937 6.091,5.878 C 3.52,11.911 6.151,9.183 6.092,5.878 6.033,2.573 3.306,-0.059 0,0 m 6.29,14.893 0.408,8.828 c 0.087,1.883 -0.812,3.675 -2.372,4.731 l -37.198,25.171 10.494,4.765 c 2.005,0.911 4.342,0.697 6.149,-0.561 L 8.404,40.677 8.63,53.35 -14.551,70.38 c -2.497,1.834 -5.812,2.11 -8.577,0.713 L -54.347,55.321 -6.931,22.833 c 1.5,-1.027 2.384,-2.74 2.351,-4.559 l -0.045,-2.54 c -3.553,-1.729 -6.036,-5.335 -6.111,-9.555 -0.107,-5.989 4.661,-10.93 10.65,-11.037 5.988,-0.107 10.929,4.661 11.036,10.649 0.067,3.76 -1.788,7.105 -4.66,9.102"
             style="fill:#ffb400;fill-opacity:1;fill-rule:nonzero;stroke:none"
             id="path88" /></g><g
           id="g90"
           transform="translate(155.54,320.6145)"><path
             d="m 0,0 c -1.618,-2.882 -5.267,-3.907 -8.15,-2.289 -2.882,1.619 -3.907,5.268 -2.288,8.15 1.618,2.883 5.267,3.908 8.149,2.289 C 0.594,6.532 1.619,2.883 0,0 m -10.133,12.597 -7.581,4.543 c -1.617,0.968 -3.62,1.026 -5.289,0.152 L -62.797,-3.534 -62.02,7.965 c 0.148,2.197 1.443,4.154 3.408,5.149 l 26.776,13.563 -11.053,6.206 -25.982,-12.342 c -2.798,-1.33 -4.612,-4.119 -4.692,-7.216 l -0.906,-34.965 51.077,26.358 c 1.617,0.834 3.544,0.8 5.13,-0.091 l 2.216,-1.244 c -0.162,-3.947 1.837,-7.842 5.518,-9.908 5.222,-2.933 11.833,-1.076 14.765,4.147 2.932,5.222 1.075,11.833 -4.147,14.765 -3.279,1.841 -7.104,1.792 -10.223,0.21"
             style="fill:#ffb400;fill-opacity:1;fill-rule:nonzero;stroke:none"
             id="path92" /></g><g
           id="g94"
           transform="translate(159.5024,275.8088)"><path
             d="M 0,0 C 1.541,2.924 5.162,4.046 8.086,2.505 11.011,0.964 12.132,-2.656 10.591,-5.581 9.05,-8.506 5.43,-9.627 2.505,-8.086 -0.419,-6.545 -1.541,-2.925 0,0 m 10.465,-12.323 7.699,-4.339 c 1.642,-0.925 3.646,-0.93 5.292,-0.012 L 62.681,5.204 62.21,-6.312 c -0.089,-2.2 -1.332,-4.19 -3.27,-5.238 l -26.405,-14.27 11.214,-5.91 25.644,13.03 c 2.762,1.403 4.501,4.239 4.499,7.338 L 73.867,23.614 23.509,-4.094 C 21.916,-4.97 19.988,-4.987 18.379,-4.14 l -2.248,1.185 c 0.056,3.95 -2.045,7.79 -5.78,9.759 -5.299,2.792 -11.857,0.759 -14.65,-4.539 -2.792,-5.299 -0.76,-11.858 4.539,-14.65 3.326,-1.753 7.149,-1.602 10.225,0.062"
             style="fill:#ffb400;fill-opacity:1;fill-rule:nonzero;stroke:none"
             id="path96" /></g><g
           id="g98"
           transform="translate(177.6245,288.5012)"><path
             d="M 0,0 C -1.845,2.743 -1.117,6.463 1.626,8.308 4.369,10.153 8.088,9.425 9.934,6.682 11.778,3.938 11.05,0.22 8.307,-1.626 5.564,-3.471 1.845,-2.742 0,0 m 15.81,3.376 7.47,4.723 c 1.593,1.007 2.546,2.77 2.518,4.654 l -0.676,44.909 9.917,-5.871 c 1.895,-1.123 3.059,-3.16 3.063,-5.362 l 0.053,-30.015 10.518,7.074 0.68,28.757 c 0.073,3.097 -1.601,5.972 -4.33,7.438 L 14.212,76.237 14.745,18.762 c 0.017,-1.819 -0.881,-3.524 -2.391,-4.539 L 10.247,12.805 C 6.794,14.727 2.417,14.696 -1.086,12.34 -6.056,8.997 -7.375,2.259 -4.032,-2.711 -0.689,-7.681 6.049,-9 11.019,-5.657 c 3.12,2.098 4.799,5.535 4.791,9.033"
             style="fill:#ffb400;fill-opacity:1;fill-rule:nonzero;stroke:none"
             id="path100" /></g><g
           id="g102"
           transform="translate(136.4302,306.8547)"><path
             d="m 0,0 c 1.757,-2.8 0.912,-6.495 -1.889,-8.252 -2.799,-1.757 -6.494,-0.912 -8.251,1.889 -1.757,2.8 -0.912,6.494 1.888,8.251 C -5.452,3.646 -1.757,2.8 0,0 m -15.91,-2.873 -7.615,-4.484 c -1.624,-0.956 -2.633,-2.688 -2.664,-4.573 l -0.747,-44.907 -9.727,6.183 c -1.858,1.181 -2.957,3.255 -2.891,5.456 l 0.898,30.002 -10.737,-6.738 -1.59,-28.72 c -0.171,-3.094 1.41,-6.021 4.091,-7.573 l 30.272,-17.521 1.287,57.463 c 0.041,1.818 0.993,3.494 2.534,4.461 l 2.152,1.35 c 3.389,-2.03 7.765,-2.137 11.341,0.107 5.074,3.183 6.605,9.876 3.422,14.95 -3.184,5.073 -9.878,6.605 -14.95,3.421 -3.186,-1.999 -4.973,-5.381 -5.076,-8.877"
             style="fill:#ffb400;fill-opacity:1;fill-rule:nonzero;stroke:none"
             id="path104" /></g><g
           id="g106"
           transform="translate(138.8198,284.885)"><path
             d="m 0,0 c 3.304,0.1 6.064,-2.498 6.164,-5.802 0.1,-3.304 -2.497,-6.064 -5.802,-6.164 -3.304,-0.1 -6.064,2.497 -6.164,5.801 C -5.902,-2.86 -3.304,-0.101 0,0 m -5.566,-15.179 0.018,-8.838 c 0.004,-1.883 0.987,-3.63 2.597,-4.61 l 38.367,-23.351 -10.253,-5.265 c -1.959,-1.006 -4.303,-0.906 -6.169,0.263 l -25.43,15.946 0.384,-12.67 23.974,-15.895 c 2.582,-1.712 5.907,-1.827 8.602,-0.298 l 30.423,17.256 -48.925,30.167 c -1.548,0.954 -2.512,2.623 -2.567,4.442 l -0.078,2.539 c 3.466,1.897 5.772,5.618 5.644,9.838 C 10.839,0.332 5.839,5.038 -0.147,4.856 -6.134,4.675 -10.84,-0.325 -10.659,-6.312 c 0.115,-3.758 2.129,-7.01 5.093,-8.867"
             style="fill:#ffb400;fill-opacity:1;fill-rule:nonzero;stroke:none"
             id="path108" /></g></g></g></g></svg>
