<svg xmlns="http://www.w3.org/2000/svg" viewBox="0 0 2551 1134"><defs><style>.cls-1{fill:#1a1a1a;}.cls-2{fill:#ffb400;}.cls-3{font-size:224.454px;fill:#e6e6e6;font-family:Impact;}</style></defs><g id="Layer_2" data-name="Layer 2"><rect class="cls-1" width="2551" height="1134"/></g><g id="Layer_1" data-name="Layer 1"><path class="cls-2" d="M546.669,472.5l1.23-26.639a16.326,16.326,0,0,0-7.158-14.272L428.5,355.638l31.665-14.38a18.841,18.841,0,0,1,18.553,1.692l74.328,51.75.683-38.241-69.947-51.386a24.816,24.816,0,0,0-25.881-2.15l-94.2,47.59,143.07,98.026a16.325,16.325,0,0,1,7.1,13.758l-.137,7.665a32.7,32.7,0,1,0,32.936,2.537ZM527.69,517.436A18.061,18.061,0,1,1,546.071,499.7,18.062,18.062,0,0,1,527.69,517.436Z" transform="translate(-0.224 -0.276)"/><path class="cls-2" d="M437.126,445.535l-22.875-13.707a16.323,16.323,0,0,0-15.96-.461l-120.07,62.842,2.343-34.7a18.839,18.839,0,0,1,10.283-15.536l80.794-40.926-33.35-18.725-78.4,37.242a24.814,24.814,0,0,0-14.159,21.771L243,548.839,397.121,469.31a16.324,16.324,0,0,1,15.477.272l6.685,3.754a32.7,32.7,0,1,0,17.843-27.8ZM467.7,483.544a18.062,18.062,0,1,1-6.907-24.591A18.062,18.062,0,0,1,467.7,483.544Z" transform="translate(-0.224 -0.276)"/><path class="cls-2" d="M511.235,655.922l23.231,13.093a16.323,16.323,0,0,0,15.966.036l118.356-66.015-1.419,34.748a18.842,18.842,0,0,1-9.866,15.8L577.827,696.65l33.837,17.83,77.378-39.315a24.815,24.815,0,0,0,13.575-22.14l-.075-105.537-151.95,83.6a16.326,16.326,0,0,1-15.479.139l-6.782-3.574a32.7,32.7,0,1,0-17.1,28.266ZM479.658,618.74a18.061,18.061,0,1,1,7.558,24.4A18.06,18.06,0,0,1,479.658,618.74Z" transform="translate(-0.224 -0.276)"/><path class="cls-2" d="M582.044,570.255,604.583,556a16.325,16.325,0,0,0,7.6-14.043l-2.042-135.505,29.926,17.716a18.841,18.841,0,0,1,9.241,16.178l.16,90.568L681.2,509.571l2.05-86.77a24.814,24.814,0,0,0-13.063-22.445l-92.969-49.949L578.83,523.83a16.323,16.323,0,0,1-7.213,13.7l-6.362,4.279a32.7,32.7,0,1,0,16.789,28.45ZM534.338,580.44a18.061,18.061,0,1,1,25.067,4.907A18.06,18.06,0,0,1,534.338,580.44Z" transform="translate(-0.224 -0.276)"/><path class="cls-2" d="M362.035,533.732l-22.979,13.53a16.326,16.326,0,0,0-8.039,13.8l-2.252,135.5L299.416,677.9a18.838,18.838,0,0,1-8.724-16.462l2.708-90.527L261,591.245l-4.8,86.66a24.815,24.815,0,0,0,12.345,22.849l91.34,52.868,3.886-173.387a16.323,16.323,0,0,1,7.643-13.461l6.494-4.075a32.7,32.7,0,1,0-15.879-28.967Zm48.005-8.669a18.061,18.061,0,1,1-24.9-5.7A18.06,18.06,0,0,1,410.04,525.063Z" transform="translate(-0.224 -0.276)"/><path class="cls-2" d="M400.456,637.153l.054,26.667a16.325,16.325,0,0,0,7.837,13.911L524.112,748.19l-30.936,15.887a18.838,18.838,0,0,1-18.614-.8L397.83,715.169l1.158,38.229,72.34,47.959a24.812,24.812,0,0,0,25.954.9l91.8-52.069L441.457,659.165a16.324,16.324,0,0,1-7.748-13.4l-.233-7.663a32.7,32.7,0,1,0-33.02-.948Zm16.794-45.8a18.061,18.061,0,1,1-17.506,18.6A18.061,18.061,0,0,1,417.25,591.354Z" transform="translate(-0.224 -0.276)"/><text class="cls-3" transform="translate(794.985 637.772)">Samyar Projects</text></g></svg>