<svg xmlns="http://www.w3.org/2000/svg" viewBox="0 0 1416.99 1417"><defs><style>.cls-1{fill:#1a1a1a;}.cls-2{fill:#ffb400;}.cls-3{font-size:207px;fill:#e6e6e6;font-family:Impact;}</style></defs><g id="Layer_2" data-name="Layer 2"><rect class="cls-1" width="1416.99" height="1417"/></g><g id="Layer_1" data-name="Layer 1"><path class="cls-2" d="M391.888,627.5l1.23-26.638a16.325,16.325,0,0,0-7.158-14.272l-112.239-75.95,31.665-14.38a18.836,18.836,0,0,1,18.553,1.692l74.328,51.75.683-38.241L329,460.076a24.814,24.814,0,0,0-25.881-2.151l-94.2,47.591,143.07,98.025a16.325,16.325,0,0,1,7.095,13.758l-.137,7.666a32.7,32.7,0,1,0,32.936,2.536Zm-18.979,44.938A18.061,18.061,0,1,1,391.29,654.7,18.063,18.063,0,0,1,372.909,672.439Z" transform="translate(-0.505)"/><path class="cls-2" d="M282.345,600.537,259.47,586.83a16.325,16.325,0,0,0-15.96-.46L123.44,649.211l2.343-34.7a18.84,18.84,0,0,1,10.283-15.536l80.794-40.926-33.35-18.724-78.4,37.241A24.816,24.816,0,0,0,90.953,598.34l-2.734,105.5L242.34,624.312a16.324,16.324,0,0,1,15.477.273l6.685,3.753a32.7,32.7,0,1,0,17.843-27.8Zm30.576,38.009a18.061,18.061,0,1,1-6.907-24.591A18.062,18.062,0,0,1,312.921,638.546Z" transform="translate(-0.505)"/><path class="cls-2" d="M356.454,810.924l23.231,13.094a16.323,16.323,0,0,0,15.966.035l118.356-66.015-1.419,34.748a18.838,18.838,0,0,1-9.866,15.8l-79.676,43.063,33.837,17.83,77.378-39.315a24.817,24.817,0,0,0,13.575-22.141l-.075-105.537-151.95,83.6a16.321,16.321,0,0,1-15.479.139l-6.782-3.574a32.7,32.7,0,1,0-17.1,28.266Zm-31.577-37.181a18.061,18.061,0,1,1,7.558,24.4A18.061,18.061,0,0,1,324.877,773.743Z" transform="translate(-0.505)"/><path class="cls-2" d="M427.263,725.257,449.8,711.006a16.326,16.326,0,0,0,7.6-14.043l-2.042-135.506,29.926,17.717a18.838,18.838,0,0,1,9.241,16.177l.161,90.568,31.736-21.346,2.05-86.769a24.816,24.816,0,0,0-13.063-22.446L422.44,505.409l1.609,173.423a16.324,16.324,0,0,1-7.213,13.7l-6.361,4.279a32.7,32.7,0,1,0,16.788,28.449Zm-47.706,10.186a18.061,18.061,0,1,1,25.067,4.906A18.062,18.062,0,0,1,379.557,735.443Z" transform="translate(-0.505)"/><path class="cls-2" d="M207.254,688.734l-22.979,13.531a16.325,16.325,0,0,0-8.039,13.795l-2.251,135.5-29.35-18.656a18.838,18.838,0,0,1-8.724-16.462l2.708-90.528-32.4,20.33-4.8,86.661a24.813,24.813,0,0,0,12.345,22.848l91.34,52.869L209,735.238a16.324,16.324,0,0,1,7.643-13.461l6.494-4.075a32.7,32.7,0,1,0-15.879-28.968Zm48.005-8.669a18.061,18.061,0,1,1-24.9-5.7A18.062,18.062,0,0,1,255.259,680.065Z" transform="translate(-0.505)"/><path class="cls-2" d="M245.675,792.155l.054,26.667a16.326,16.326,0,0,0,7.837,13.911l115.765,70.459L338.4,919.08a18.838,18.838,0,0,1-18.614-.8l-76.732-48.112,1.158,38.23,72.34,47.959a24.816,24.816,0,0,0,25.955.9l91.8-52.07L286.676,814.167a16.323,16.323,0,0,1-7.748-13.4L278.7,793.1a32.7,32.7,0,1,0-33.021-.949Zm16.794-45.8a18.061,18.061,0,1,1-17.506,18.6A18.061,18.061,0,0,1,262.469,746.357Z" transform="translate(-0.505)"/><text class="cls-3" transform="translate(622.924 678.05)">Samyar <tspan x="0" y="217">Projects</tspan></text></g></svg>