<svg id="Layer_1" data-name="Layer 1" xmlns="http://www.w3.org/2000/svg" viewBox="0 0 510 510"><defs><style>.cls-1{fill:#1a1a1a;}.cls-2{fill:#ffb400;}</style></defs><rect class="cls-1" width="510" height="510"/><path class="cls-2" d="M320.96,183.1l1.1-23.75a14.554,14.554,0,0,0-6.382-12.725L215.6,78.908l28.232-12.821A16.8,16.8,0,0,1,260.378,67.6l66.269,46.139.609-34.095L264.892,33.825a22.125,22.125,0,0,0-23.075-1.917L157.832,74.339l127.559,87.4A14.555,14.555,0,0,1,291.717,174l-.123,6.834A29.156,29.156,0,1,0,320.96,183.1Zm-16.922,40.065a16.1,16.1,0,1,1,16.388-15.812A16.1,16.1,0,0,1,304.038,223.164Z"/><path class="cls-2" d="M223.293,159.058l-20.4-12.221a14.553,14.553,0,0,0-14.229-.41L81.616,202.455l2.089-30.936a16.8,16.8,0,0,1,9.168-13.852l72.034-36.489-29.734-16.694-69.9,33.2A22.124,22.124,0,0,0,52.651,157.1l-2.437,94.063,137.411-70.907a14.554,14.554,0,0,1,13.8.244l5.961,3.346a29.156,29.156,0,1,0,15.908-24.787Zm27.261,33.888a16.1,16.1,0,1,1-6.158-21.925A16.1,16.1,0,0,1,250.554,192.946Z"/><path class="cls-2" d="M289.367,346.636l20.712,11.674a14.558,14.558,0,0,0,14.236.031l105.524-58.858-1.266,30.981a16.794,16.794,0,0,1-8.8,14.091L348.74,382.948l30.168,15.9L447.9,363.793a22.123,22.123,0,0,0,12.1-19.74l-.067-94.095L324.458,324.5a14.556,14.556,0,0,1-13.8.124l-6.047-3.187a29.156,29.156,0,1,0-15.243,25.2Zm-28.153-33.151a16.1,16.1,0,1,1,6.739,21.753A16.1,16.1,0,0,1,261.214,313.485Z"/><path class="cls-2" d="M352.5,270.257l20.1-12.707a14.555,14.555,0,0,0,6.774-12.52l-1.82-120.815,26.681,15.8a16.794,16.794,0,0,1,8.239,14.423l.143,80.749,28.3-19.031,1.828-77.363a22.124,22.124,0,0,0-11.647-20.012L348.2,74.244l1.434,154.621a14.555,14.555,0,0,1-6.431,12.211l-5.672,3.815A29.156,29.156,0,1,0,352.5,270.257Zm-42.533,9.081a16.1,16.1,0,1,1,22.349,4.374A16.1,16.1,0,0,1,309.966,279.338Z"/><path class="cls-2" d="M156.344,237.693l-20.488,12.064a14.556,14.556,0,0,0-7.168,12.3l-2.007,120.812-26.168-16.633a16.8,16.8,0,0,1-7.778-14.677l2.415-80.713L66.266,288.971l-4.278,77.265A22.123,22.123,0,0,0,73,386.607l81.437,47.137L157.9,279.155a14.555,14.555,0,0,1,6.815-12l5.79-3.633a29.156,29.156,0,1,0-14.157-25.827Zm42.8-7.729a16.1,16.1,0,1,1-22.2-5.08A16.1,16.1,0,0,1,199.143,229.964Z"/><path class="cls-2" d="M190.6,329.9l.048,23.775a14.553,14.553,0,0,0,6.987,12.4L300.848,428.9l-27.582,14.165a16.794,16.794,0,0,1-16.6-.71l-68.413-42.9,1.032,34.085,64.5,42.76a22.125,22.125,0,0,0,23.141.8l81.845-46.425L227.155,349.527a14.554,14.554,0,0,1-6.909-11.948l-.207-6.832a29.155,29.155,0,1,0-29.44-.845Zm14.973-40.834a16.1,16.1,0,1,1-15.608,16.584A16.1,16.1,0,0,1,205.572,289.068Z"/></svg>